<?xml version="1.0" standalone="no"?>
<!DOCTYPE svg PUBLIC "-//W3C//DTD SVG 20010904//EN"
 "http://www.w3.org/TR/2001/REC-SVG-20010904/DTD/svg10.dtd">
<svg version="1.0" xmlns="http://www.w3.org/2000/svg"
 width="640.000000pt" height="427.000000pt" viewBox="0 0 640.000000 427.000000"
 preserveAspectRatio="xMidYMid meet">
<metadata>
Created by potrace 1.16, written by Peter Selinger 2001-2019
</metadata>
<g transform="translate(0.000000,427.000000) scale(0.100000,-0.100000)"
fill="#000000" stroke="none">
<path d="M1607 4234 c17 -34 17 -36 -1 -46 -34 -19 -56 -48 -56 -72 0 -37 35
-56 100 -56 31 0 61 -5 66 -10 7 -7 20 -6 40 5 16 8 45 15 65 15 28 0 44 8 72
35 21 20 37 44 37 55 0 27 -43 57 -96 65 -34 5 -48 12 -51 26 -4 14 -14 19
-37 19 -27 0 -32 -4 -32 -22 1 -33 -31 -35 -45 -4 -10 20 -19 26 -45 26 l-34
0 17 -36z"/>
<path d="M2950 4258 c0 -7 -18 -146 -40 -308 -64 -469 -173 -1297 -195 -1482
-6 -54 2 -98 19 -98 13 0 236 -84 266 -100 20 -11 20 -12 -9 -47 -17 -20 -28
-40 -25 -45 6 -9 53 -30 129 -58 28 -10 244 -93 480 -185 237 -92 518 -200
625 -242 460 -178 532 -205 1070 -416 91 -35 217 -85 280 -110 63 -25 146 -58
184 -72 38 -15 77 -31 85 -35 9 -5 57 -23 108 -42 55 -20 87 -36 80 -41 -8 -5
-4 -7 8 -5 26 3 158 -44 145 -52 -5 -3 6 -6 24 -7 33 -1 35 1 41 39 4 22 10
36 14 31 8 -12 73 -39 85 -35 5 2 6 -3 3 -10 -3 -10 4 -13 32 -9 24 4 29 6 14
9 -12 2 -27 10 -33 18 -7 8 -18 14 -25 14 -27 0 -74 31 -68 45 6 18 -1 20 77
-10 37 -14 69 -25 71 -25 3 0 5 220 5 489 l0 489 -87 11 c-116 15 -178 28
-217 46 -53 24 -181 45 -276 45 -78 0 -102 4 -163 30 -40 16 -110 38 -157 50
-47 12 -135 37 -196 56 -62 19 -161 41 -220 48 -126 16 -195 37 -243 75 -18
14 -44 34 -56 44 -13 9 -65 26 -116 37 -68 15 -108 30 -146 55 -45 30 -61 35
-112 35 -42 0 -77 8 -123 28 -98 42 -182 90 -195 111 -11 18 -8 20 35 30 28 5
65 6 92 1 25 -4 77 -11 115 -14 39 -4 95 -13 125 -21 30 -8 81 -15 112 -15 68
0 149 -20 243 -59 73 -30 198 -63 309 -81 71 -11 134 -24 140 -27 6 -4 36 -10
66 -14 132 -15 434 -74 455 -89 6 -4 42 -17 80 -30 39 -12 74 -26 80 -31 5 -5
16 -9 25 -9 23 0 330 -118 377 -146 23 -13 44 -24 47 -24 3 0 6 241 6 535 0
294 -2 535 -4 535 -2 0 -24 -18 -48 -41 -49 -46 -143 -94 -204 -104 -63 -10
-180 21 -237 62 -26 20 -59 35 -72 36 -15 0 -22 4 -18 10 4 6 0 8 -9 5 -8 -4
-27 4 -41 16 l-26 23 22 11 c12 6 40 13 62 16 32 4 47 15 80 53 59 70 126 133
142 133 7 0 21 4 31 9 9 5 32 15 50 21 27 11 32 17 32 45 0 28 -5 35 -31 44
-82 28 -362 -8 -419 -54 -27 -22 -84 -48 -125 -57 -77 -16 -85 -18 -117 -37
-18 -10 -51 -22 -73 -26 -32 -6 -36 -9 -20 -15 14 -5 4 -9 -35 -12 -30 -3 -57
-2 -60 2 -3 4 -25 10 -50 13 -25 4 -61 9 -81 12 -23 4 -39 3 -43 -4 -11 -17
-26 -13 -27 7 -1 9 -5 -3 -10 -27 -8 -43 -41 -91 -63 -91 -12 -1 -66 -46 -66
-55 0 -3 5 -3 10 0 17 11 11 0 -12 -19 -17 -15 -20 -15 -15 -3 3 9 2 19 -4 22
-5 4 -8 1 -7 -6 2 -7 -8 -15 -21 -18 -19 -5 0 -14 87 -40 99 -30 112 -37 112
-56 0 -48 -18 -48 -186 0 -87 26 -162 49 -166 53 -4 4 -4 22 1 40 8 27 7 32
-7 33 -10 0 -5 6 13 14 l30 14 -30 2 c-16 1 -22 3 -13 6 10 2 16 13 15 26 -3
29 -36 77 -53 77 -8 0 -11 6 -8 15 4 8 12 15 20 15 8 0 14 10 14 25 0 14 5 25
10 25 14 0 12 36 -3 48 -25 21 -64 24 -98 6 -25 -12 -60 -18 -125 -18 -87 -1
-95 -3 -186 -48 -89 -44 -101 -47 -219 -58 -68 -6 -140 -15 -159 -20 -19 -4
-66 -11 -105 -15 -38 -4 -89 -13 -113 -21 -51 -17 -112 -18 -145 -3 -21 10
-23 16 -23 78 1 58 -3 73 -27 110 -31 46 -73 73 -86 53 -8 -13 -81 -5 -81 9 0
5 -7 9 -15 9 -8 0 -24 18 -35 40 -37 72 -103 115 -113 73 -3 -14 -6 -13 -15 9
-6 14 -20 29 -32 33 -11 4 -32 17 -45 31 -13 13 -28 24 -32 24 -5 0 -16 12
-25 28 -14 22 -18 24 -18 8 0 -11 -2 -17 -5 -15 -4 5 23 230 49 406 9 57 16
105 16 108 0 3 -31 5 -70 5 -49 0 -70 -4 -70 -12z m2550 -1013 c53 -17 4 -81
-117 -153 -87 -53 -155 -75 -205 -67 -30 5 -39 13 -51 43 l-14 36 36 24 c20
14 46 33 59 43 13 10 45 25 73 34 27 9 49 21 49 26 0 6 4 8 9 4 5 -3 12 -2 14
2 7 10 121 16 147 8z m-2380 -1061 c52 -20 140 -53 195 -74 55 -21 181 -70
280 -109 412 -161 666 -261 757 -296 54 -21 96 -40 94 -42 -3 -4 -418 149
-876 324 -446 169 -560 215 -560 224 0 14 7 12 110 -27z"/>
<path d="M1930 3941 c0 -6 -10 -19 -22 -30 -18 -17 -19 -23 -8 -36 11 -13 10
-20 -8 -45 -12 -16 -19 -35 -16 -43 5 -14 45 -37 64 -37 15 0 12 26 -5 40 -8
7 -15 19 -15 26 0 11 19 14 80 14 44 0 80 2 80 5 0 23 -37 68 -68 84 -52 26
-82 34 -82 22z"/>
<path d="M2773 3797 c-22 -30 -48 -75 -58 -101 -14 -36 -23 -46 -35 -43 -14 4
-19 -4 -23 -34 -5 -37 -52 -99 -75 -99 -4 0 -37 11 -71 25 -77 32 -103 27 -99
-18 3 -35 46 -70 107 -87 54 -15 190 -12 248 5 44 13 51 19 57 48 11 54 19
187 12 187 -4 0 -39 -33 -76 -72 -79 -83 -89 -74 -30 25 39 63 96 204 87 213
-2 2 -22 -20 -44 -49z"/>
<path d="M1205 3182 c-134 -15 -292 -103 -325 -182 -7 -18 -11 -56 -8 -95 3
-51 9 -70 28 -91 57 -60 138 -80 265 -63 141 18 233 58 305 133 33 35 35 40
35 110 0 42 -6 84 -14 98 -20 39 -82 68 -165 77 -41 5 -78 10 -82 13 -5 2 -22
2 -39 0z"/>
<path d="M416 2959 c-32 -17 -42 -19 -61 -9 -34 18 -77 1 -94 -37 -23 -52 -75
-57 -141 -13 -25 16 -55 30 -66 30 -12 0 -24 7 -28 15 -23 62 -26 -35 -26
-994 l0 -1009 43 -7 c59 -10 143 -8 202 5 100 22 189 80 344 225 48 44 108 99
134 122 l48 42 -19 40 c-11 23 -17 43 -12 46 9 6 22 -9 44 -52 19 -38 32 -42
41 -14 3 12 12 18 20 15 12 -5 12 0 5 28 -12 40 -12 48 -2 48 5 0 14 -22 21
-50 7 -29 20 -51 29 -55 9 -3 30 -25 46 -48 45 -67 84 -89 169 -95 63 -4 82
-1 142 23 41 17 90 28 122 29 52 1 54 3 128 76 104 103 212 239 231 293 3 9
10 17 14 17 12 0 19 37 8 48 -5 5 -11 22 -14 38 -10 58 -26 93 -45 99 -16 5
-19 16 -19 69 0 116 -30 223 -79 280 -15 18 -15 19 4 12 11 -4 27 -9 35 -11 8
-2 28 -8 43 -14 16 -6 69 -23 118 -36 79 -22 95 -24 132 -14 39 11 40 13 17
20 -14 4 -41 7 -61 8 -20 1 -49 7 -65 15 -16 8 -83 38 -149 66 -66 28 -153 69
-193 91 -41 21 -78 37 -83 33 -20 -12 -9 -59 19 -76 19 -12 22 -18 10 -18 -9
0 -20 5 -23 10 -6 10 -148 80 -162 80 -3 0 -35 14 -70 31 -41 20 -68 28 -74
22 -14 -14 -1 -40 24 -47 12 -3 19 -7 16 -10 -6 -6 -131 32 -142 43 -4 4 -1
14 8 21 19 16 19 34 0 50 -8 7 -15 22 -15 34 0 25 -141 188 -170 196 -27 8
-100 106 -100 135 0 31 -21 77 -56 125 -24 33 -29 35 -87 36 -34 1 -75 5 -92
8 -21 4 -42 -1 -69 -15z m308 -1056 c2 7 5 3 6 -8 1 -19 1 -19 15 -1 12 15 22
17 62 11 26 -4 67 -13 89 -21 23 -8 53 -15 66 -16 l25 -2 -34 -96 c-33 -92
-53 -130 -53 -100 0 7 -3 10 -6 7 -4 -4 -20 3 -35 14 -16 11 -29 18 -29 15 0
-3 -17 4 -37 16 -69 39 -88 48 -100 48 -19 0 -16 14 7 35 24 21 26 40 5 31
-10 -3 -15 1 -15 14 0 10 -7 26 -16 35 -15 14 -17 14 -30 -2 -13 -17 -14 -17
-7 2 6 18 5 18 -10 6 -15 -12 -16 -11 -6 18 l11 32 44 -25 c29 -16 45 -20 48
-13z"/>
<path d="M2876 2003 c-14 -15 -26 -33 -26 -39 0 -6 37 -26 82 -44 l82 -32 23
28 c38 48 40 46 -123 111 -7 2 -24 -8 -38 -24z"/>
<path d="M3072 1927 c-36 -38 -28 -52 53 -86 41 -17 79 -31 84 -31 11 0 51 53
51 68 0 9 -137 72 -158 72 -4 0 -18 -10 -30 -23z"/>
<path d="M2786 1888 c-21 -28 -39 -58 -40 -66 -1 -18 128 -75 152 -67 28 9 93
106 81 121 -9 11 -130 64 -147 64 -4 0 -25 -23 -46 -52z"/>
<path d="M3267 1844 c-10 -13 -17 -32 -15 -40 3 -16 127 -74 158 -74 19 0 50
40 50 64 0 14 -134 76 -162 76 -7 0 -21 -12 -31 -26z"/>
<path d="M2971 1805 c-22 -31 -41 -60 -41 -66 0 -10 100 -57 141 -66 23 -4 32
2 69 51 23 31 40 62 37 69 -5 12 -130 67 -153 67 -6 0 -30 -25 -53 -55z"/>
<path d="M2677 1748 c-67 -83 -67 -83 10 -119 132 -60 182 -79 195 -74 20 8
90 114 85 128 -5 12 -222 107 -244 107 -6 0 -27 -19 -46 -42z"/>
<path d="M3470 1760 c-12 -17 -20 -37 -17 -44 3 -7 42 -28 88 -46 l82 -33 24
27 c40 46 32 59 -58 94 -44 18 -84 32 -89 32 -5 0 -18 -14 -30 -30z"/>
<path d="M3168 1726 c-21 -30 -38 -61 -38 -69 0 -17 142 -79 164 -71 20 8 88
113 83 128 -5 12 -134 66 -158 66 -8 0 -31 -25 -51 -54z"/>
<path d="M3704 1702 c-13 -9 -44 -59 -44 -71 0 -8 161 -81 180 -81 14 0 52 69
44 81 -11 19 -167 80 -180 71z"/>
<path d="M3368 1645 c-21 -31 -38 -62 -38 -71 0 -15 96 -62 145 -71 28 -5 34
0 68 51 20 31 37 62 37 69 0 14 -135 77 -162 77 -7 0 -30 -25 -50 -55z"/>
<path d="M2956 1610 c-25 -34 -43 -66 -40 -73 5 -14 130 -67 156 -67 19 0 98
100 98 123 0 13 -133 77 -159 77 -5 0 -30 -27 -55 -60z"/>
<path d="M2545 1579 c-25 -34 -44 -66 -42 -72 4 -12 276 -137 299 -137 19 0
111 117 105 135 -4 12 -274 134 -299 134 -9 1 -37 -27 -63 -60z"/>
<path d="M3570 1554 c-37 -55 -41 -67 -29 -78 19 -17 136 -66 159 -66 22 0 95
113 87 134 -4 11 -149 76 -168 76 -4 0 -26 -30 -49 -66z"/>
<path d="M3901 1591 c-12 -16 -21 -36 -21 -44 0 -21 177 -92 195 -77 20 16 39
70 29 80 -10 9 -161 70 -174 70 -5 0 -18 -13 -29 -29z"/>
<path d="M3160 1530 c-23 -33 -40 -68 -38 -76 3 -17 146 -84 165 -77 16 6 83
110 83 128 0 10 -24 27 -62 44 -108 49 -101 50 -148 -19z"/>
<path d="M3802 1503 c-11 -16 -29 -47 -41 -71 l-22 -43 67 -30 c37 -17 81 -33
98 -36 29 -4 33 -1 64 52 17 31 32 65 32 74 0 13 -22 28 -71 50 -87 38 -102
38 -127 4z"/>
<path d="M4120 1498 c-11 -18 -20 -38 -20 -44 0 -6 43 -28 96 -49 l96 -39 19
25 c36 46 23 68 -66 106 -44 18 -85 33 -92 33 -7 0 -22 -15 -33 -32z"/>
<path d="M3361 1434 c-22 -36 -41 -69 -41 -73 0 -13 168 -84 180 -76 21 13 88
127 83 141 -4 12 -146 74 -169 74 -7 0 -30 -30 -53 -66z"/>
<path d="M2893 1433 c-24 -32 -43 -65 -43 -74 0 -11 27 -29 76 -53 42 -20 80
-36 85 -36 15 0 101 130 96 144 -6 15 -107 64 -147 72 -21 4 -32 -4 -67 -53z"/>
<path d="M2448 1453 c-44 -49 -76 -98 -71 -111 6 -16 193 -104 209 -98 18 7
105 128 101 140 -3 10 -183 94 -203 95 -5 1 -22 -11 -36 -26z"/>
<path d="M3996 1376 c-20 -35 -36 -69 -36 -74 0 -5 41 -26 90 -47 104 -42 106
-42 146 38 37 72 31 84 -51 118 -102 41 -107 40 -149 -35z"/>
<path d="M4350 1408 c-11 -18 -19 -39 -18 -46 3 -16 152 -81 185 -82 30 0 61
66 41 86 -12 12 -164 74 -180 74 -5 0 -17 -15 -28 -32z"/>
<path d="M3572 1343 c-22 -38 -38 -72 -35 -77 8 -13 151 -76 173 -76 21 0 95
123 87 144 -6 14 -145 76 -170 76 -8 0 -33 -30 -55 -67z"/>
<path d="M3093 1330 c-27 -42 -43 -74 -37 -79 14 -13 150 -71 167 -71 21 0
101 131 91 148 -10 15 -137 72 -160 72 -8 0 -35 -32 -61 -70z"/>
<path d="M2667 1302 c-26 -37 -47 -71 -47 -75 0 -13 141 -78 163 -75 22 3 106
111 107 136 0 13 -136 82 -163 82 -7 0 -35 -30 -60 -68z"/>
<path d="M4262 1353 c-15 -6 -72 -115 -72 -138 0 -17 114 -73 167 -82 31 -5
33 -4 64 62 23 47 30 72 23 82 -8 13 -57 36 -149 72 -11 5 -26 6 -33 4z"/>
<path d="M4603 1342 c-20 -13 -45 -74 -35 -84 14 -14 173 -78 194 -78 20 0 51
62 42 85 -3 7 -24 20 -47 29 -23 8 -65 24 -93 35 -27 11 -55 16 -61 13z"/>
<path d="M2344 1312 c-19 -12 -124 -154 -124 -167 0 -15 149 -85 167 -78 17 7
123 151 123 167 0 19 -149 89 -166 78z"/>
<path d="M3817 1298 c-59 -97 -69 -120 -56 -132 23 -21 167 -79 182 -73 20 7
82 131 75 149 -6 14 -149 78 -175 78 -7 0 -19 -10 -26 -22z"/>
<path d="M3304 1239 c-32 -48 -43 -74 -36 -81 14 -14 153 -78 170 -78 16 0 92
117 92 142 0 14 -20 28 -76 54 -41 19 -82 34 -90 34 -8 0 -35 -32 -60 -71z"/>
<path d="M2874 1210 c-26 -38 -44 -75 -41 -83 7 -18 152 -81 170 -74 17 6 97
124 97 142 0 11 -148 85 -171 85 -5 0 -30 -31 -55 -70z"/>
<path d="M4450 1199 c-17 -33 -30 -70 -28 -81 2 -14 25 -29 83 -53 44 -19 88
-34 98 -35 21 0 81 117 75 147 -3 18 -143 81 -180 83 -12 0 -28 -21 -48 -61z"/>
<path d="M4831 1236 c-7 -8 -14 -29 -17 -48 l-6 -34 97 -39 c74 -30 101 -36
113 -28 21 13 39 70 25 84 -11 11 -173 79 -189 79 -6 0 -17 -6 -23 -14z"/>
<path d="M4048 1213 c-19 -21 -68 -118 -68 -133 0 -12 162 -90 186 -90 13 0
84 127 84 150 0 6 -33 26 -72 44 -104 47 -112 49 -130 29z"/>
<path d="M2126 1017 c170 -112 386 -252 479 -312 519 -330 527 -335 552 -380
27 -48 31 -135 8 -179 -16 -30 -11 -52 5 -26 16 25 11 5 -7 -31 l-18 -34 -3
28 c-2 17 -9 27 -20 27 -31 0 -44 -17 -49 -64 -6 -46 -5 -46 24 -46 25 0 36
10 76 68 44 63 47 71 47 132 0 78 -24 135 -71 174 -19 15 -24 23 -12 17 33
-16 73 -31 73 -27 0 7 -133 78 -171 91 -20 7 -76 39 -125 71 -237 154 -335
218 -667 438 -334 221 -391 256 -419 256 -6 0 129 -91 298 -203z"/>
<path d="M2480 1141 c-33 -44 -60 -85 -60 -90 0 -15 156 -92 172 -86 19 8 128
166 122 177 -8 12 -141 78 -158 78 -8 0 -42 -36 -76 -79z"/>
<path d="M3558 1203 c-8 -10 -30 -44 -48 -76 -39 -70 -39 -69 73 -117 77 -33
79 -33 96 -14 31 33 80 129 73 141 -7 12 -155 83 -171 83 -4 0 -15 -8 -23 -17z"/>
<path d="M3085 1113 c-25 -37 -45 -73 -45 -80 0 -14 143 -83 172 -83 21 0 98
112 98 143 0 13 -22 28 -76 53 -41 19 -82 34 -89 34 -8 0 -35 -30 -60 -67z"/>
<path d="M4707 1148 c-33 -52 -60 -129 -49 -140 17 -17 163 -78 187 -78 18 0
27 13 50 69 15 38 25 76 22 84 -3 8 -38 28 -79 45 -112 46 -115 46 -131 20z"/>
<path d="M5071 1128 c-28 -75 -36 -66 105 -123 96 -39 102 -38 122 22 13 40 3
49 -105 91 -98 38 -111 39 -122 10z"/>
<path d="M4245 1060 c-19 -38 -35 -74 -35 -80 0 -13 134 -77 177 -86 27 -5 30
-1 62 63 18 38 32 77 30 87 -4 18 -145 85 -181 86 -12 0 -29 -23 -53 -70z"/>
<path d="M2686 1039 c-31 -45 -55 -87 -52 -95 6 -16 138 -84 163 -84 20 1 136
167 127 182 -9 14 -142 78 -162 78 -12 0 -39 -29 -76 -81z"/>
<path d="M3767 1083 c-35 -56 -57 -100 -57 -116 0 -15 152 -87 182 -87 18 0
88 123 88 154 0 12 -153 86 -179 86 -6 0 -21 -17 -34 -37z"/>
<path d="M3300 1012 c-22 -38 -40 -74 -40 -81 0 -15 167 -94 185 -87 7 2 32
37 55 77 41 69 42 72 24 89 -23 21 -138 70 -164 70 -13 0 -32 -22 -60 -68z"/>
<path d="M4941 1048 c-5 -13 -19 -47 -30 -77 -15 -37 -19 -57 -11 -66 17 -20
199 -90 209 -79 15 15 57 137 53 155 -3 17 -162 89 -195 89 -10 0 -21 -10 -26
-22z"/>
<path d="M5324 1014 c-8 -20 -14 -43 -12 -51 4 -17 184 -95 212 -91 26 4 49
70 33 91 -13 15 -180 87 -204 87 -7 0 -21 -16 -29 -36z"/>
<path d="M4481 964 c-17 -36 -31 -74 -31 -84 0 -12 27 -29 95 -59 53 -23 100
-39 106 -35 20 12 71 136 65 158 -4 15 -28 30 -88 54 -46 18 -90 32 -100 32
-10 0 -27 -24 -47 -66z"/>
<path d="M2897 935 c-32 -47 -57 -88 -57 -93 0 -12 228 -122 242 -117 14 6
118 169 118 184 0 12 -206 111 -230 111 -10 0 -39 -33 -73 -85z"/>
<path d="M3975 949 c-20 -39 -35 -77 -33 -85 3 -16 173 -97 191 -91 16 5 86
147 81 162 -6 14 -162 85 -188 85 -9 0 -30 -28 -51 -71z"/>
<path d="M3567 975 c-24 -23 -89 -144 -83 -154 9 -15 157 -81 180 -81 16 0 31
16 59 65 51 89 49 100 -20 131 -125 57 -120 55 -136 39z"/>
<path d="M5193 958 c-18 -23 -55 -150 -47 -158 18 -17 209 -89 217 -81 15 15
56 146 52 162 -5 14 -174 89 -201 89 -7 0 -16 -6 -21 -12z"/>
<path d="M5598 938 c-23 -18 -34 -81 -16 -94 27 -21 197 -86 214 -82 23 4 43
72 28 94 -6 11 -190 93 -210 94 0 0 -8 -6 -16 -12z"/>
<path d="M4754 922 c-18 -12 -68 -152 -58 -162 5 -5 52 -27 104 -49 65 -27 98
-36 107 -30 16 14 66 155 59 167 -7 11 -171 82 -189 82 -7 0 -17 -4 -23 -8z"/>
<path d="M4246 913 c-14 -14 -76 -155 -71 -163 2 -4 48 -26 101 -49 80 -36 99
-41 109 -29 19 19 74 150 69 163 -5 11 -169 85 -190 85 -6 0 -14 -3 -18 -7z"/>
<path d="M3234 892 c-22 -14 -115 -174 -110 -188 3 -7 20 -20 38 -28 18 -7
128 -60 243 -116 344 -168 828 -401 857 -413 37 -15 47 -4 92 100 50 114 50
118 -31 155 -144 64 -579 265 -813 375 -291 136 -263 124 -276 115z"/>
<path d="M3752 802 c-22 -43 -38 -83 -34 -89 10 -15 183 -92 197 -87 11 5 85
146 85 164 0 12 -165 90 -190 90 -11 0 -31 -28 -58 -78z"/>
<path d="M5454 862 c-12 -8 -54 -127 -54 -154 0 -10 10 -23 23 -28 12 -5 60
-24 107 -44 66 -27 88 -33 97 -23 19 20 53 149 44 165 -5 8 -51 32 -102 53
-105 43 -100 42 -115 31z"/>
<path d="M5862 828 c-18 -23 -25 -83 -10 -95 7 -6 60 -30 117 -53 120 -47 133
-44 135 32 l1 43 -105 42 c-117 47 -123 48 -138 31z"/>
<path d="M5004 822 c-11 -7 -64 -138 -64 -158 0 -11 38 -31 144 -76 81 -33 82
-33 114 58 37 102 41 96 -102 155 -75 32 -76 32 -92 21z"/>
<path d="M4487 806 c-20 -20 -70 -144 -64 -159 3 -7 48 -33 101 -56 73 -34 99
-41 109 -33 20 17 70 150 63 168 -5 14 -42 32 -148 75 -39 15 -49 16 -61 5z"/>
<path d="M4037 769 c-15 -9 -68 -104 -81 -147 -7 -21 0 -26 89 -68 54 -25 104
-43 111 -40 8 3 31 39 51 81 29 57 35 79 27 92 -15 24 -178 92 -197 82z"/>
<path d="M5701 742 c-5 -9 -17 -46 -26 -81 -20 -80 -22 -78 116 -138 166 -71
239 -97 249 -87 13 13 41 154 35 174 -5 16 -317 150 -349 150 -9 0 -20 -8 -25
-18z"/>
<path d="M5252 707 c-16 -19 -55 -144 -49 -159 7 -18 203 -102 221 -95 15 6
56 127 56 164 0 17 -20 29 -94 62 -101 44 -118 48 -134 28z"/>
<path d="M4733 698 c-25 -34 -66 -151 -57 -165 10 -16 171 -93 195 -93 23 0
33 15 62 96 20 57 23 75 14 86 -12 14 -176 88 -195 88 -5 0 -14 -6 -19 -12z"/>
<path d="M1990 648 c-19 -40 -35 -56 -67 -72 -23 -12 -43 -24 -43 -27 0 -5 42
-36 152 -111 l58 -40 27 22 c32 25 85 86 101 116 10 19 2 27 -93 92 -57 40
-105 72 -107 72 -2 -1 -14 -24 -28 -52z"/>
<path d="M4272 657 c-18 -21 -72 -141 -72 -158 0 -19 172 -102 204 -97 15 2
29 24 53 80 18 42 30 83 27 91 -5 13 -172 97 -193 97 -5 0 -13 -6 -19 -13z"/>
<path d="M5513 598 c-16 -21 -45 -145 -39 -165 9 -26 212 -109 230 -94 15 12
46 124 46 164 0 21 -13 29 -102 65 -113 46 -121 48 -135 30z"/>
<path d="M4988 587 c-19 -20 -62 -151 -56 -169 6 -14 189 -98 214 -98 13 0 17
8 48 100 12 36 21 72 19 81 -3 11 -42 33 -103 58 -54 23 -101 41 -104 41 -2 0
-11 -6 -18 -13z"/>
<path d="M4516 538 c-18 -28 -66 -143 -66 -158 0 -15 189 -102 213 -98 14 2
28 24 48 73 43 108 43 110 -54 154 -120 55 -123 56 -141 29z"/>
<path d="M5788 488 c-9 -7 -24 -49 -34 -92 -17 -79 -17 -80 5 -97 12 -10 26
-19 32 -21 7 -2 1 -40 -16 -107 -14 -57 -24 -110 -21 -117 10 -25 83 -54 139
-54 l53 0 44 191 c32 139 41 195 33 207 -7 13 -188 98 -214 101 -3 1 -12 -5
-21 -11z"/>
<path d="M5241 463 c-5 -10 -18 -48 -29 -85 -15 -51 -17 -71 -8 -82 15 -20
193 -98 214 -94 19 4 75 158 66 182 -6 16 -183 96 -213 96 -11 0 -24 -8 -30
-17z"/>
<path d="M4776 432 c-18 -29 -65 -164 -60 -175 6 -18 202 -107 219 -101 17 7
77 168 69 187 -5 14 -184 97 -209 97 -8 0 -16 -4 -19 -8z"/>
<path d="M5528 360 c-18 -11 -61 -141 -56 -173 4 -27 214 -124 238 -109 21 13
57 168 44 190 -6 9 -55 35 -110 59 -54 24 -99 43 -99 43 0 0 -7 -5 -17 -10z"/>
<path d="M4433 332 c-18 -11 -94 -199 -87 -215 9 -24 217 -117 262 -117 l40 0
37 94 c21 52 35 102 31 111 -3 9 -27 25 -53 37 -27 11 -86 38 -131 59 -46 22
-85 39 -85 39 -1 0 -7 -4 -14 -8z"/>
<path d="M5035 308 c-2 -7 -16 -46 -30 -86 -15 -41 -24 -80 -21 -87 7 -20 194
-107 220 -103 17 2 27 20 49 87 15 47 25 92 22 101 -6 18 -181 100 -214 100
-12 0 -24 -6 -26 -12z"/>
<path d="M5313 188 c-15 -19 -53 -138 -53 -165 l0 -23 268 0 267 0 -220 100
c-121 55 -227 100 -236 100 -9 0 -21 -6 -26 -12z"/>
<path d="M4764 182 c-11 -6 -74 -156 -74 -174 0 -5 63 -8 140 -8 l140 0 10 26
c21 53 15 62 -77 108 -103 51 -124 58 -139 48z"/>
<path d="M2649 58 l-42 -53 98 -3 c75 -2 102 1 113 11 12 13 6 20 -44 56 -31
22 -63 41 -70 41 -8 0 -32 -24 -55 -52z"/>
</g>
</svg>
